<?xml version="1.0" encoding="UTF-8"?>
<svg width="600" height="400" viewBox="0 0 600 400" xmlns="http://www.w3.org/2000/svg">
  <!-- Тело дракона -->
  <path d="M350,100 C400,75 450,125 425,175 C475,150 450,50 375,75 C325,25 250,50 225,100 C200,75 150,75 125,125 C75,125 50,175 100,200 C75,225 75,275 125,275 C150,325 225,325 250,275 C275,325 350,325 375,275 C425,300 450,250 400,225 C450,200 425,150 375,175 C400,125 375,75 325,100 C300,50 225,75 250,125 C275,75 325,75 350,100 Z" fill="rgba(79, 209, 101, 0.15)" stroke="rgba(79, 209, 101, 0.25)" stroke-width="5">
    <animate attributeName="d" dur="15s" repeatCount="indefinite" values="
      M350,100 C400,75 450,125 425,175 C475,150 450,50 375,75 C325,25 250,50 225,100 C200,75 150,75 125,125 C75,125 50,175 100,200 C75,225 75,275 125,275 C150,325 225,325 250,275 C275,325 350,325 375,275 C425,300 450,250 400,225 C450,200 425,150 375,175 C400,125 375,75 325,100 C300,50 225,75 250,125 C275,75 325,75 350,100 Z;
      M375,125 C425,100 475,150 450,200 C500,175 475,75 400,100 C350,50 275,75 250,125 C225,100 175,100 150,150 C100,150 75,200 125,225 C100,250 100,300 150,300 C175,350 250,350 275,300 C300,350 375,350 400,300 C450,325 475,275 425,250 C475,225 450,175 400,200 C425,150 400,100 350,125 C325,75 250,100 275,150 C300,100 350,100 375,125 Z;
      M350,100 C400,75 450,125 425,175 C475,150 450,50 375,75 C325,25 250,50 225,100 C200,75 150,75 125,125 C75,125 50,175 100,200 C75,225 75,275 125,275 C150,325 225,325 250,275 C275,325 350,325 375,275 C425,300 450,250 400,225 C450,200 425,150 375,175 C400,125 375,75 325,100 C300,50 225,75 250,125 C275,75 325,75 350,100 Z"
    />
  </path>
  
  <!-- Крылья дракона -->
  <path d="M300,125 L350,75 M200,125 L150,75" stroke="rgba(79, 209, 101, 0.25)" stroke-width="5" fill="none">
    <animate attributeName="d" dur="15s" repeatCount="indefinite" values="
      M300,125 L350,75 M200,125 L150,75;
      M325,150 L375,100 M225,150 L175,100;
      M300,125 L350,75 M200,125 L150,75"
    />
  </path>
  
  <!-- Хвост дракона -->
  <path d="M375,175 C425,200 450,250 425,300 C475,275 500,225 475,175" stroke="rgba(79, 209, 101, 0.25)" stroke-width="5" fill="rgba(79, 209, 101, 0.1)">
    <animate attributeName="d" dur="15s" repeatCount="indefinite" values="
      M375,175 C425,200 450,250 425,300 C475,275 500,225 475,175;
      M400,200 C450,225 475,275 450,325 C500,300 525,250 500,200;
      M375,175 C425,200 450,250 425,300 C475,275 500,225 475,175"
    />
  </path>
  
  <!-- Глаза дракона -->
  <circle cx="275" cy="100" r="10" fill="rgba(79, 209, 101, 0.5)">
    <animate attributeName="cy" dur="3s" repeatCount="indefinite" values="100;105;100" />
  </circle>
  <circle cx="225" cy="100" r="10" fill="rgba(79, 209, 101, 0.5)">
    <animate attributeName="cy" dur="3s" repeatCount="indefinite" values="100;105;100" />
  </circle>
  
  <!-- Огонь из пасти -->
  <path d="M250,150 C275,175 300,160 325,175 C350,160 375,175 400,150" stroke="rgba(255, 165, 0, 0.3)" stroke-width="3" fill="rgba(255, 165, 0, 0.1)">
    <animate attributeName="d" dur="2s" repeatCount="indefinite" values="
      M250,150 C275,175 300,160 325,175 C350,160 375,175 400,150;
      M250,150 C275,165 300,180 325,165 C350,180 375,165 400,150;
      M250,150 C275,175 300,160 325,175 C350,160 375,175 400,150"
    />
    <animate attributeName="opacity" dur="2s" repeatCount="indefinite" values="0.5;0.8;0.5" />
  </path>
</svg>
