<?xml version="1.0" encoding="UTF-8"?>
<svg width="800" height="600" viewBox="0 0 800 600" xmlns="http://www.w3.org/2000/svg">
  <!-- u0422u0435u043bu043e u0434u0440u0430u043au043eu043du0430 -->
  <path d="M500,200 C550,180 600,220 580,270 C650,240 620,150 540,180 C500,120 420,140 400,190 C380,170 340,170 320,210 C270,210 250,260 290,290 C260,320 260,380 310,380 C340,430 410,430 440,380 C470,430 540,430 570,380 C620,400 640,350 590,320 C650,290 620,240 570,270 C590,220 570,170 520,190 C490,140 420,160 440,210 C460,160 500,160 500,200 Z" fill="rgba(30, 50, 30, 0.7)" stroke="rgba(20, 40, 20, 0.8)" stroke-width="5">
    <animate attributeName="d" dur="20s" repeatCount="indefinite" values="
      M500,200 C550,180 600,220 580,270 C650,240 620,150 540,180 C500,120 420,140 400,190 C380,170 340,170 320,210 C270,210 250,260 290,290 C260,320 260,380 310,380 C340,430 410,430 440,380 C470,430 540,430 570,380 C620,400 640,350 590,320 C650,290 620,240 570,270 C590,220 570,170 520,190 C490,140 420,160 440,210 C460,160 500,160 500,200 Z;
      M520,220 C570,200 620,240 600,290 C670,260 640,170 560,200 C520,140 440,160 420,210 C400,190 360,190 340,230 C290,230 270,280 310,310 C280,340 280,400 330,400 C360,450 430,450 460,400 C490,450 560,450 590,400 C640,420 660,370 610,340 C670,310 640,260 590,290 C610,240 590,190 540,210 C510,160 440,180 460,230 C480,180 520,180 520,220 Z;
      M500,200 C550,180 600,220 580,270 C650,240 620,150 540,180 C500,120 420,140 400,190 C380,170 340,170 320,210 C270,210 250,260 290,290 C260,320 260,380 310,380 C340,430 410,430 440,380 C470,430 540,430 570,380 C620,400 640,350 590,320 C650,290 620,240 570,270 C590,220 570,170 520,190 C490,140 420,160 440,210 C460,160 500,160 500,200 Z"
    />
  </path>
  
  <!-- u041au0440u044bu043bu044cu044f u0434u0440u0430u043au043eu043du0430 -->
  <path d="M460,190 L520,120 M380,190 L320,120" stroke="rgba(20, 40, 20, 0.8)" stroke-width="8" fill="none">
    <animate attributeName="d" dur="20s" repeatCount="indefinite" values="
      M460,190 L520,120 M380,190 L320,120;
      M480,210 L540,140 M400,210 L340,140;
      M460,190 L520,120 M380,190 L320,120"
    />
  </path>
  
  <!-- u0425u0432u043eu0441u0442 u0434u0440u0430u043au043eu043du0430 -->
  <path d="M570,270 C620,290 650,350 620,400 C680,380 700,320 670,270" stroke="rgba(20, 40, 20, 0.8)" stroke-width="8" fill="rgba(30, 50, 30, 0.6)">
    <animate attributeName="d" dur="20s" repeatCount="indefinite" values="
      M570,270 C620,290 650,350 620,400 C680,380 700,320 670,270;
      M590,290 C640,310 670,370 640,420 C700,400 720,340 690,290;
      M570,270 C620,290 650,350 620,400 C680,380 700,320 670,270"
    />
  </path>
  
  <!-- u0413u043bu0430u0437u0430 u0434u0440u0430u043au043eu043du0430 -->
  <circle cx="440" cy="180" r="8" fill="rgba(255, 0, 0, 0.8)">
    <animate attributeName="opacity" dur="4s" repeatCount="indefinite" values="0.8;1;0.8" />
  </circle>
  <circle cx="400" cy="180" r="8" fill="rgba(255, 0, 0, 0.8)">
    <animate attributeName="opacity" dur="4s" repeatCount="indefinite" values="0.8;1;0.8" />
  </circle>
  
  <!-- u041eu0433u043eu043du044c u0438u0437 u043fu0430u0441u0442u0438 -->
  <path d="M420,230 C450,260 480,240 510,260 C540,240 570,260 600,230" stroke="rgba(255, 100, 0, 0.8)" stroke-width="5" fill="rgba(255, 100, 0, 0.6)">
    <animate attributeName="d" dur="1s" repeatCount="indefinite" values="
      M420,230 C450,260 480,240 510,260 C540,240 570,260 600,230;
      M420,230 C450,250 480,270 510,250 C540,270 570,250 600,230;
      M420,230 C450,260 480,240 510,260 C540,240 570,260 600,230"
    />
    <animate attributeName="opacity" dur="1s" repeatCount="indefinite" values="0.8;1;0.8" />
  </path>
  
  <!-- u0414u044bu043c -->
  <path d="M600,230 C620,210 640,220 630,200 C650,190 660,170 640,160 C660,150 650,130 630,140 C640,120 620,110 610,130" stroke="rgba(100, 100, 100, 0.4)" stroke-width="3" fill="rgba(150, 150, 150, 0.2)">
    <animate attributeName="d" dur="3s" repeatCount="indefinite" values="
      M600,230 C620,210 640,220 630,200 C650,190 660,170 640,160 C660,150 650,130 630,140 C640,120 620,110 610,130;
      M600,230 C630,200 650,210 640,180 C670,170 680,150 650,140 C680,120 670,100 640,110 C660,90 630,80 620,100;
      M600,230 C620,210 640,220 630,200 C650,190 660,170 640,160 C660,150 650,130 630,140 C640,120 620,110 610,130"
    />
    <animate attributeName="opacity" dur="3s" repeatCount="indefinite" values="0.4;0.1;0.4" />
  </path>
</svg>
