<?xml version="1.0" encoding="UTF-8"?>
<svg width="100" height="80" viewBox="0 0 100 80" xmlns="http://www.w3.org/2000/svg">
  <path d="M70,20 C80,15 90,25 85,35 C95,30 90,10 75,15 C65,5 50,10 45,20 C40,15 30,15 25,25 C15,25 10,35 20,40 C15,45 15,55 25,55 C30,65 45,65 50,55 C55,65 70,65 75,55 C85,60 90,50 80,45 C90,40 85,30 75,35 C80,25 75,15 65,20 C60,10 45,15 50,25 C55,15 65,15 70,20 Z" fill="rgba(79, 209, 101, 0.1)" stroke="rgba(79, 209, 101, 0.2)" stroke-width="2">
    <animate attributeName="d" dur="10s" repeatCount="indefinite" values="
      M70,20 C80,15 90,25 85,35 C95,30 90,10 75,15 C65,5 50,10 45,20 C40,15 30,15 25,25 C15,25 10,35 20,40 C15,45 15,55 25,55 C30,65 45,65 50,55 C55,65 70,65 75,55 C85,60 90,50 80,45 C90,40 85,30 75,35 C80,25 75,15 65,20 C60,10 45,15 50,25 C55,15 65,15 70,20 Z;
      M75,25 C85,20 95,30 90,40 C100,35 95,15 80,20 C70,10 55,15 50,25 C45,20 35,20 30,30 C20,30 15,40 25,45 C20,50 20,60 30,60 C35,70 50,70 55,60 C60,70 75,70 80,60 C90,65 95,55 85,50 C95,45 90,35 80,40 C85,30 80,20 70,25 C65,15 50,20 55,30 C60,20 70,20 75,25 Z;
      M70,20 C80,15 90,25 85,35 C95,30 90,10 75,15 C65,5 50,10 45,20 C40,15 30,15 25,25 C15,25 10,35 20,40 C15,45 15,55 25,55 C30,65 45,65 50,55 C55,65 70,65 75,55 C85,60 90,50 80,45 C90,40 85,30 75,35 C80,25 75,15 65,20 C60,10 45,15 50,25 C55,15 65,15 70,20 Z"
    />
  </path>
  <path d="M60,25 L65,15 M40,25 L35,15" stroke="rgba(79, 209, 101, 0.2)" stroke-width="2" fill="none">
    <animate attributeName="d" dur="10s" repeatCount="indefinite" values="
      M60,25 L65,15 M40,25 L35,15;
      M65,30 L70,20 M45,30 L40,20;
      M60,25 L65,15 M40,25 L35,15"
    />
  </path>
  <circle cx="55" cy="20" r="2" fill="rgba(79, 209, 101, 0.3)">
    <animate attributeName="cy" dur="2s" repeatCount="indefinite" values="20;22;20" />
  </circle>
  <circle cx="45" cy="20" r="2" fill="rgba(79, 209, 101, 0.3)">
    <animate attributeName="cy" dur="2s" repeatCount="indefinite" values="20;22;20" />
  </circle>
</svg>
